HIERARCHY
ROOT Root
{
  OFFSET 0.0 0.0 0.0
  CHANNELS 6 Xposition Yposition Zposition Zrotation Yrotation Xrotation
  JOINT Hips
  {
    OFFSET 0.0 100.0 0.0
    CHANNELS 6 Xposition Yposition Zposition Zrotation Yrotation Xrotation
    JOINT Spine1
    {
      OFFSET -0.013727 5.003763 -0.053727
      CHANNELS 3 Zrotation Yrotation Xrotation
      JOINT Spine2
      {
        OFFSET -0.0 7.125301 -0.029825
        CHANNELS 3 Zrotation Yrotation Xrotation
        JOINT Chest
        {
          OFFSET -1e-06 7.550063 -0.815971
          CHANNELS 3 Zrotation Yrotation Xrotation
          JOINT Neck1
          {
            OFFSET -0.181677 26.311295 -0.553348
            CHANNELS 3 Zrotation Yrotation Xrotation
            JOINT Neck2
            {
              OFFSET -3e-06 7.709397 2.302585
              CHANNELS 3 Zrotation Yrotation Xrotation
              JOINT Head
              {
                OFFSET -5e-06 6.128916 1.953709
                CHANNELS 3 Zrotation Yrotation Xrotation
                JOINT HeadEnd
                {
                  OFFSET 0.003598 16.065403 -1.835379
                  CHANNELS 3 Zrotation Yrotation Xrotation
                }
                JOINT Jaw
                {
                  OFFSET 0.002637 0.475592 3.094941
                  CHANNELS 3 Zrotation Yrotation Xrotation
                }
                JOINT LeftEye
                {
                  OFFSET 3.206381 5.380205 7.586883
                  CHANNELS 3 Zrotation Yrotation Xrotation
                }
                JOINT RightEye
                {
                  OFFSET -3.22244 5.361869 7.558234
                  CHANNELS 3 Zrotation Yrotation Xrotation
                }
              }
            }
          }
          JOINT LeftShoulder
          {
            OFFSET 1.621652 23.237164 5.113413
            CHANNELS 3 Zrotation Yrotation Xrotation
            JOINT LeftArm
            {
              OFFSET 14.919846 2e-06 -5.502326
              CHANNELS 3 Zrotation Yrotation Xrotation
              JOINT LeftForeArm
              {
                OFFSET 28.739307 0.0 -0.002588
                CHANNELS 3 Zrotation Yrotation Xrotation
                JOINT LeftHand
                {
                  OFFSET 27.093981 -1e-06 0.002609
                  CHANNELS 3 Zrotation Yrotation Xrotation
                  JOINT LeftHandThumb1
                  {
                    OFFSET 2.276482 -1.392045 3.191413
                    CHANNELS 3 Zrotation Yrotation Xrotation
                    JOINT LeftHandThumb2
                    {
                      OFFSET 4.012836 -1.828127 1.641654
                      CHANNELS 3 Zrotation Yrotation Xrotation
                      JOINT LeftHandThumb3
                      {
                        OFFSET 2.798515 0.0 -3e-06
                        CHANNELS 3 Zrotation Yrotation Xrotation
                        JOINT LeftHandThumbEnd
                        {
                          OFFSET 3.180793 -4e-06 4e-06
                          CHANNELS 3 Zrotation Yrotation Xrotation
                        }
                      }
                    }
                  }
                  JOINT LeftHandIndex1
                  {
                    OFFSET 3.247555 -0.531998 2.296169
                    CHANNELS 3 Zrotation Yrotation Xrotation
                    JOINT LeftHandIndex2
                    {
                      OFFSET 6.364578 0.01206 0.1786
                      CHANNELS 3 Zrotation Yrotation Xrotation
                      JOINT LeftHandIndex3
                      {
                        OFFSET 3.662364 0.0 0.0
                        CHANNELS 3 Zrotation Yrotation Xrotation
                        JOINT LeftHandIndex4
                        {
                          OFFSET 2.329242 4e-06 4e-06
                          CHANNELS 3 Zrotation Yrotation Xrotation
                          JOINT LeftHandIndexEnd
                          {
                            OFFSET 2.759615 -0.180537 -0.113024
                            CHANNELS 3 Zrotation Yrotation Xrotation
                          }
                        }
                      }
                    }
                  }
                  JOINT LeftHandMiddle1
                  {
                    OFFSET 3.163495 0.240981 1.000332
                    CHANNELS 3 Zrotation Yrotation Xrotation
                    JOINT LeftHandMiddle2
                    {
                      OFFSET 6.19078 -0.259278 -1.002548
                      CHANNELS 3 Zrotation Yrotation Xrotation
                      JOINT LeftHandMiddle3
                      {
                        OFFSET 4.35652 -4e-06 -1e-06
                        CHANNELS 3 Zrotation Yrotation Xrotation
                        JOINT LeftHandMiddle4
                        {
                          OFFSET 2.996877 -8e-06 0.0
                          CHANNELS 3 Zrotation Yrotation Xrotation
                          JOINT LeftHandMiddleEnd
                          {
                            OFFSET 2.304287 -0.294569 -0.031741
                            CHANNELS 3 Zrotation Yrotation Xrotation
                          }
                        }
                      }
                    }
                  }
                  JOINT LeftHandRing1
                  {
                    OFFSET 2.882643 -0.053652 -0.322543
                    CHANNELS 3 Zrotation Yrotation Xrotation
                    JOINT LeftHandRing2
                    {
                      OFFSET 5.854541 -0.486202 -1.373841
                      CHANNELS 3 Zrotation Yrotation Xrotation
                      JOINT LeftHandRing3
                      {
                        OFFSET 4.350578 0.0 3e-06
                        CHANNELS 3 Zrotation Yrotation Xrotation
                        JOINT LeftHandRing4
                        {
                          OFFSET 2.651321 7e-06 2e-06
                          CHANNELS 3 Zrotation Yrotation Xrotation
                          JOINT LeftHandRingEnd
                          {
                            OFFSET 1.936105 0.077687 -7.1e-05
                            CHANNELS 3 Zrotation Yrotation Xrotation
                          }
                        }
                      }
                    }
                  }
                  JOINT LeftHandPinky1
                  {
                    OFFSET 2.8655 -0.310005 -1.600378
                    CHANNELS 3 Zrotation Yrotation Xrotation
                    JOINT LeftHandPinky2
                    {
                      OFFSET 5.087849 -1.331141 -1.77123
                      CHANNELS 3 Zrotation Yrotation Xrotation
                      JOINT LeftHandPinky3
                      {
                        OFFSET 3.070974 4e-06 0.0
                        CHANNELS 3 Zrotation Yrotation Xrotation
                        JOINT LeftHandPinky4
                        {
                          OFFSET 1.549672 0.0 1e-06
                          CHANNELS 3 Zrotation Yrotation Xrotation
                          JOINT LeftHandPinkyEnd
                          {
                            OFFSET 1.944893 -0.157802 0.057219
                            CHANNELS 3 Zrotation Yrotation Xrotation
                          }
                        }
                      }
                    }
                  }
                }
              }
            }
          }
          JOINT RightShoulder
          {
            OFFSET -1.380118 23.180309 5.214158
            CHANNELS 3 Zrotation Yrotation Xrotation
            JOINT RightArm
            {
              OFFSET -15.037196 1.2e-05 -5.545604
              CHANNELS 3 Zrotation Yrotation Xrotation
              JOINT RightForeArm
              {
                OFFSET -28.736639 2e-06 -0.002597
                CHANNELS 3 Zrotation Yrotation Xrotation
                JOINT RightHand
                {
                  OFFSET -27.133619 -0.0 0.002613
                  CHANNELS 3 Zrotation Yrotation Xrotation
                  JOINT RightHandThumb1
                  {
                    OFFSET -2.274032 -1.383988 3.163127
                    CHANNELS 3 Zrotation Yrotation Xrotation
                    JOINT RightHandThumb2
                    {
                      OFFSET -4.011429 -1.827466 1.640914
                      CHANNELS 3 Zrotation Yrotation Xrotation
                      JOINT RightHandThumb3
                      {
                        OFFSET -2.794935 -4e-06 -3e-06
                        CHANNELS 3 Zrotation Yrotation Xrotation
                        JOINT RightHandThumbEnd
                        {
                          OFFSET -3.183852 4e-06 1e-06
                          CHANNELS 3 Zrotation Yrotation Xrotation
                        }
                      }
                    }
                  }
                  JOINT RightHandIndex1
                  {
                    OFFSET -3.253266 -0.520057 2.282866
                    CHANNELS 3 Zrotation Yrotation Xrotation
                    JOINT RightHandIndex2
                    {
                      OFFSET -6.341917 0.012471 0.178266
                      CHANNELS 3 Zrotation Yrotation Xrotation
                      JOINT RightHandIndex3
                      {
                        OFFSET -3.654871 -8e-06 -0.0
                        CHANNELS 3 Zrotation Yrotation Xrotation
                        JOINT RightHandIndex4
                        {
                          OFFSET -2.327586 0.0 1e-06
                          CHANNELS 3 Zrotation Yrotation Xrotation
                          JOINT RightHandIndexEnd
                          {
                            OFFSET -2.76179 -0.180656 -0.113078
                            CHANNELS 3 Zrotation Yrotation Xrotation
                          }
                        }
                      }
                    }
                  }
                  JOINT RightHandMiddle1
                  {
                    OFFSET -3.168106 0.246593 1.00103
                    CHANNELS 3 Zrotation Yrotation Xrotation
                    JOINT RightHandMiddle2
                    {
                      OFFSET -6.180828 -0.258836 -1.000895
                      CHANNELS 3 Zrotation Yrotation Xrotation
                      JOINT RightHandMiddle3
                      {
                        OFFSET -4.348901 0.0 -0.0
                        CHANNELS 3 Zrotation Yrotation Xrotation
                        JOINT RightHandMiddle4
                        {
                          OFFSET -3.00024 -4e-06 -2e-06
                          CHANNELS 3 Zrotation Yrotation Xrotation
                          JOINT RightHandMiddleEnd
                          {
                            OFFSET -2.30252 -0.29437 -0.031706
                            CHANNELS 3 Zrotation Yrotation Xrotation
                          }
                        }
                      }
                    }
                  }
                  JOINT RightHandRing1
                  {
                    OFFSET -2.88569 -0.067952 -0.308858
                    CHANNELS 3 Zrotation Yrotation Xrotation
                    JOINT RightHandRing2
                    {
                      OFFSET -5.854198 -0.48613 -1.373731
                      CHANNELS 3 Zrotation Yrotation Xrotation
                      JOINT RightHandRing3
                      {
                        OFFSET -4.33881 -4e-06 -0.0
                        CHANNELS 3 Zrotation Yrotation Xrotation
                        JOINT RightHandRing4
                        {
                          OFFSET -2.654903 -4e-06 4e-06
                          CHANNELS 3 Zrotation Yrotation Xrotation
                          JOINT RightHandRingEnd
                          {
                            OFFSET -1.933568 0.077527 -5.2e-05
                            CHANNELS 3 Zrotation Yrotation Xrotation
                          }
                        }
                      }
                    }
                  }
                  JOINT RightHandPinky1
                  {
                    OFFSET -2.866425 -0.342796 -1.584145
                    CHANNELS 3 Zrotation Yrotation Xrotation
                    JOINT RightHandPinky2
                    {
                      OFFSET -5.091371 -1.332055 -1.772385
                      CHANNELS 3 Zrotation Yrotation Xrotation
                      JOINT RightHandPinky3
                      {
                        OFFSET -3.062664 -4e-06 1e-06
                        CHANNELS 3 Zrotation Yrotation Xrotation
                        JOINT RightHandPinky4
                        {
                          OFFSET -1.546529 4e-06 -2e-06
                          CHANNELS 3 Zrotation Yrotation Xrotation
                          JOINT RightHandPinkyEnd
                          {
                            OFFSET -1.945119 -0.157718 0.057211
                            CHANNELS 3 Zrotation Yrotation Xrotation
                          }
                        }
                      }
                    }
                  }
                }
              }
            }
          }
        }
      }
    }
    JOINT LeftLeg
    {
      OFFSET 10.043214 -8.434526 2.595655
      CHANNELS 3 Zrotation Yrotation Xrotation
      JOINT LeftShin
      {
        OFFSET -1e-06 -43.221752 -0.802913
        CHANNELS 3 Zrotation Yrotation Xrotation
        JOINT LeftFoot
        {
          OFFSET 1e-06 -42.155094 -3.481523
          CHANNELS 3 Zrotation Yrotation Xrotation
          JOINT LeftToeBase
          {
            OFFSET 0.0 -5.059472 13.231529
            CHANNELS 3 Zrotation Yrotation Xrotation
            JOINT LeftToeEnd
            {
              OFFSET -0.009607 -1.647619 6.513017
              CHANNELS 3 Zrotation Yrotation Xrotation
            }
          }
        }
      }
    }
    JOINT RightLeg
    {
      OFFSET -10.047278 -8.29526 2.620317
      CHANNELS 3 Zrotation Yrotation Xrotation
      JOINT RightShin
      {
        OFFSET 1e-06 -43.362206 -0.805556
        CHANNELS 3 Zrotation Yrotation Xrotation
        JOINT RightFoot
        {
          OFFSET 2e-06 -42.117393 -3.478398
          CHANNELS 3 Zrotation Yrotation Xrotation
          JOINT RightToeBase
          {
            OFFSET -0.0 -5.079609 13.284196
            CHANNELS 3 Zrotation Yrotation Xrotation
            JOINT RightToeEnd
            {
              OFFSET 0.009532 -1.634378 6.460591
              CHANNELS 3 Zrotation Yrotation Xrotation
            }
          }
        }
      }
    }
  }
}
MOTION
Frames: 5
Frame Time: 0.03333333333333333
1.078336 0.0 0.233723 0.0 -0.461828 0.0 0.0 100.255295 0.0 0.398932 -0.007034 1.001598 0.493451 0.083437 -2.804903 -0.597163 0.741804 -6.094126 -1.082834 -1.600461 11.58885 1.449838 2.321383 10.841251 -1.033018 -1.373057 -3.648439 2.173922 -3.066067 -7.150043 7.7e-05 -2.2e-05 6e-06 0.008194 -0.069339 0.039817 0.691316 -3.79098 -10.561673 -0.675445 3.661472 -10.554306 -15.125102 -4.655063 13.61911 -58.83363 -1.317281 11.125878 0.337678 -32.451973 -0.12599 -5.101985 -4.070096 8.477721 -5.882108 9.86129 0.702592 -10.936878 -0.360576 7.156208 2e-06 8.77483 0.0 -15.670096 18.301437 6.28927 -1.844033 2.498505 -2.50728 -10.163605 4.678947 4.621109 -20.976036 -6e-06 3e-06 -21.226299 2.451697 -3.594001 2e-06 -7e-06 -0.0 -1.362681 2.240798 -0.746324 -21.334927 0.584907 3.008324 -13.821222 -4e-06 1e-06 -23.887184 -0.249082 -0.839482 -60.272766 2.867084 -1.220342 -0.294026 1.679688 0.833257 -14.218216 0.093214 1.300581 -34.212067 -0.287568 0.967171 -20.033222 0.964536 1.212844 0.0 1e-06 0.0 -3.44039 0.788234 0.501655 -15.928198 -3.167314 2.999709 -6.33883 -2e-06 1e-06 -18.123457 3.648184 -4.905669 -1e-06 1e-06 -2e-06 21.817808 10.736744 19.533388 53.850677 9.698541 17.745007 -0.079806 27.284969 0.013519 -16.024872 6.270959 -12.930506 2.243542 -5.255038 -3.180159 14.282899 -0.826593 6.952503 -2e-06 -12.69061 -2e-06 15.977407 -17.627125 2.7077 1.665667 -1.955923 -2.878301 4.727801 -4.170588 4.993924 11.020534 4e-06 -3e-06 12.109059 -3.735718 -2.866788 -0.0 -1e-06 1e-06 1.291987 -1.928551 -1.498091 14.800139 0.567468 3.865607 14.242582 -1.341736 -6.660662 19.631981 0.143926 -0.648246 49.520977 -0.631125 -6.379993 0.353028 -1.511151 -0.03194 20.222803 3.684312 2.316628 18.787287 5e-06 -2e-06 10.751635 -0.479868 1.397906 0.0 1e-06 0.0 3.273808 0.305949 -0.580111 21.486824 11.830381 2.266131 8.16293 2e-06 -1e-06 18.399092 -3.798985 -4.94058 3e-06 1e-06 -1e-06 5.345171 4.79143 -1.559602 0.0094 -0.025484 5.119943 -7.056145 -0.690278 -3.267562 1.648232 -2.022899 -0.491982 -0.0 -0.0 2e-06 -4.824448 -11.67328 -3.892702 -0.035238 -0.021198 8.177341 8.270461 0.185196 -4.426086 -1.403962 0.919205 -0.575419 0.0 -0.0 -1e-06 
1.033768 0.0 0.219281 0.0 -1.097432 0.0 0.0 100.251404 0.0 0.376235 -0.006209 0.92756 0.505764 0.057604 -2.774526 -0.604371 0.639237 -6.066472 -1.141689 -1.70818 11.429381 1.274171 2.380177 10.159254 -0.967804 -1.106712 -3.646499 2.203284 -2.84972 -7.458059 7.7e-05 -2.2e-05 6e-06 0.006554 -0.0711 0.042911 0.687413 -3.79413 -10.560395 -0.674938 3.661301 -10.550841 -15.085654 -4.893049 13.546808 -58.699631 -1.328655 11.176428 0.394248 -32.586391 -0.129012 -5.281977 -4.12209 8.537664 -5.88211 9.861293 0.702591 -10.93688 -0.360576 7.156208 1e-06 8.774833 -2e-06 -15.638519 18.351362 6.345975 -1.844035 2.498506 -2.507278 -10.163608 4.678948 4.621107 -20.97604 -6e-06 1e-06 -21.226301 2.451697 -3.594005 3e-06 -5e-06 1e-06 -1.362683 2.240801 -0.746322 -21.334932 0.584907 3.008322 -13.821225 -7e-06 -1e-06 -23.887192 -0.249085 -0.839483 -60.258812 2.850389 -1.16889 -0.294024 1.679689 0.833254 -14.218221 0.093213 1.300578 -34.212082 -0.287572 0.967168 -20.033232 0.964532 1.212843 0.0 1e-06 1e-06 -3.440391 0.788234 0.501656 -15.928201 -3.167314 2.999707 -6.338831 -2e-06 0.0 -18.123461 3.648182 -4.905674 -3e-06 1e-06 -1e-06 21.749472 10.581095 19.242411 54.2286 9.034345 17.301355 -0.152211 25.710392 -0.007123 -14.723651 5.670066 -12.169263 2.243543 -5.255042 -3.180161 14.282905 -0.826593 6.952507 -5e-06 -12.690614 1e-06 16.02549 -17.619936 2.67835 1.665669 -1.955924 -2.878302 4.727804 -4.170592 4.993927 11.020538 4e-06 -1e-06 12.109065 -3.735717 -2.866786 -0.0 0.0 0.0 1.291986 -1.92855 -1.49809 14.800142 0.567467 3.865609 14.242585 -1.341735 -6.660663 19.63199 0.143929 -0.648245 49.480068 -0.584909 -6.372884 0.353028 -1.51115 -0.03194 20.222813 3.684316 2.316631 18.787292 6e-06 0.0 10.751639 -0.479868 1.397907 -1e-06 0.0 2e-06 3.27381 0.305947 -0.580111 21.486835 11.830384 2.266133 8.162932 3e-06 -2e-06 18.399099 -3.798985 -4.940579 4e-06 1e-06 -1e-06 5.403126 5.022435 -1.399195 0.008901 -0.017186 5.199518 -7.107888 -0.357893 -3.344409 1.647434 -2.033684 -0.540415 -0.0 0.0 2e-06 -4.757125 -11.410277 -4.016702 -0.0426 -0.014896 8.325104 8.187164 0.485156 -4.387472 -1.408458 0.915107 -0.59235 -0.0 -0.0 -1e-06 
0.982103 0.0 0.204565 0.0 -1.54412 0.0 0.0 100.252106 0.0 0.35236 -0.005585 0.883668 0.527728 0.032189 -2.74633 -0.59996 0.533646 -6.042924 -1.189202 -1.807951 11.272041 1.097783 2.444239 9.466067 -0.914177 -0.906144 -3.637679 2.210907 -2.66814 -7.806114 7.7e-05 -2.3e-05 6e-06 0.00435 -0.064689 0.041992 0.683087 -3.788047 -10.556405 -0.675207 3.66854 -10.547147 -15.05341 -5.104897 13.49673 -58.671463 -1.442674 11.093696 0.417077 -32.51759 -0.131177 -5.354422 -4.117896 8.69966 -5.882107 9.861285 0.702589 -10.936872 -0.360575 7.156205 -0.0 8.774824 -2e-06 -15.615971 18.373171 6.396146 -1.844033 2.498505 -2.507277 -10.163601 4.678944 4.621107 -20.976023 -3e-06 3e-06 -21.226286 2.451696 -3.594 2e-06 -7e-06 1e-06 -1.362683 2.240799 -0.746322 -21.334915 0.584908 3.008322 -13.821215 -2e-06 0.0 -23.887175 -0.249079 -0.839484 -60.243942 2.839091 -1.125881 -0.294025 1.679686 0.833256 -14.218208 0.093214 1.300581 -34.212048 -0.287565 0.96717 -20.033213 0.964537 1.212842 1e-06 1e-06 -1e-06 -3.440389 0.788233 0.501656 -15.928185 -3.167309 2.999707 -6.338826 0.0 2e-06 -18.123451 3.648182 -4.905674 -3e-06 2e-06 -0.0 21.659798 10.430906 18.974878 54.595272 8.309052 16.815722 -0.220938 24.463104 -0.015025 -13.686186 5.180617 -11.600206 2.243541 -5.255037 -3.180158 14.282896 -0.826593 6.952504 -3e-06 -12.690609 1e-06 16.06661 -17.610506 2.641698 1.665666 -1.955921 -2.878299 4.7278 -4.170588 4.993925 11.020529 5e-06 -3e-06 12.109056 -3.735715 -2.866784 0.0 -1e-06 0.0 1.291986 -1.928551 -1.498091 14.800134 0.567467 3.865609 14.242579 -1.341735 -6.66066 19.631973 0.143928 -0.648244 49.444611 -0.539027 -6.36617 0.353028 -1.51115 -0.031941 20.222801 3.684311 2.316631 18.787281 5e-06 2e-06 10.751633 -0.479869 1.397907 0.0 -0.0 1e-06 3.273809 0.305947 -0.58011 21.48682 11.83038 2.266133 8.16293 2e-06 0.0 18.399088 -3.798985 -4.940577 2e-06 -0.0 -0.0 5.466508 5.198497 -1.319728 0.008144 -0.013604 5.292222 -7.163788 -0.125022 -3.384868 1.646435 -2.046018 -0.614133 -0.0 -0.0 2e-06 -4.679462 -11.217162 -4.098692 -0.044318 -0.00858 8.382941 8.089614 0.682646 -4.314466 -1.411438 0.90996 -0.624631 -0.0 -0.0 -1e-06 
0.917979 0.0 0.191982 0.0 -1.839377 0.0 0.0 100.255516 0.0 0.31862 -0.004963 0.861156 0.562774 0.011134 -2.717607 -0.587163 0.436316 -6.017475 -1.222223 -1.891116 11.107834 0.945885 2.502436 8.798727 -0.877374 -0.759614 -3.625616 2.192966 -2.531707 -8.163871 7.7e-05 -2.3e-05 6e-06 0.002496 -0.054096 0.038628 0.680534 -3.778172 -10.552473 -0.676547 3.680083 -10.543141 -15.031837 -5.307194 13.458164 -58.774502 -1.571316 10.868166 0.419477 -32.338871 -0.123051 -5.32615 -4.117136 8.865272 -5.88211 9.861292 0.702589 -10.936878 -0.360574 7.156209 -0.0 8.774828 -1e-06 -15.601761 18.375826 6.404068 -1.844033 2.498505 -2.507276 -10.163605 4.678948 4.621112 -20.976038 -2e-06 3e-06 -21.226299 2.451699 -3.594002 2e-06 -6e-06 -0.0 -1.362683 2.2408 -0.746322 -21.334929 0.584912 3.008325 -13.821223 -1e-06 0.0 -23.887184 -0.249078 -0.839485 -60.208603 2.825728 -1.118928 -0.294026 1.679688 0.833257 -14.218217 0.093216 1.300581 -34.21207 -0.287561 0.96717 -20.033222 0.964537 1.212843 0.0 2e-06 1e-06 -3.440391 0.788234 0.501656 -15.928198 -3.167309 2.99971 -6.338831 0.0 1e-06 -18.123459 3.648186 -4.905671 -3e-06 0.0 -0.0 21.560223 10.285945 18.739214 54.922718 7.573079 16.349846 -0.265155 23.507994 -0.01645 -12.888654 4.823435 -11.244131 2.243543 -5.255039 -3.180157 14.282894 -0.826596 6.952501 -1e-06 -12.690607 1e-06 16.097586 -17.601839 2.604594 1.665667 -1.955921 -2.878299 4.7278 -4.170588 4.993923 11.020527 3e-06 -2e-06 12.109053 -3.735717 -2.866784 0.0 0.0 2e-06 1.291986 -1.928548 -1.498089 14.800129 0.567466 3.865606 14.242572 -1.341738 -6.660657 19.631968 0.143924 -0.648244 49.425747 -0.495346 -6.380762 0.353028 -1.511149 -0.03194 20.222794 3.684308 2.316628 18.787273 4e-06 -2e-06 10.751627 -0.479869 1.397904 0.0 -0.0 0.0 3.273807 0.305947 -0.58011 21.486813 11.830376 2.266133 8.162928 1e-06 -1e-06 18.399082 -3.798987 -4.940578 2e-06 0.0 -1e-06 5.541941 5.353424 -1.283362 0.007583 -0.015981 5.367554 -7.228021 -0.000548 -3.40146 1.644678 -2.057784 -0.683735 -0.0 -0.0 2e-06 -4.588557 -11.104733 -4.13223 -0.043247 -0.003734 8.364604 7.987883 0.804039 -4.223566 -1.412894 0.906751 -0.659808 0.0 -0.0 -1e-06 
0.840902 0.0 0.186258 0.0 -2.042908 0.0 0.0 100.258255 0.0 0.278469 -0.004424 0.86811 0.609239 -0.013534 -2.693944 -0.571358 0.367287 -5.992169 -1.243883 -1.965974 10.935229 0.814864 2.554523 8.161586 -0.851112 -0.643336 -3.61778 2.144646 -2.416748 -8.503621 7.7e-05 -2.3e-05 6e-06 0.00182 -0.042259 0.03516 0.679005 -3.767105 -10.548977 -0.676557 3.692678 -10.539993 -15.033776 -5.489126 13.396023 -58.971752 -1.633303 10.542894 0.394941 -32.162338 -0.10325 -5.252913 -4.153784 9.00564 -5.882112 9.861294 0.702589 -10.936878 -0.360574 7.156208 0.0 8.774833 2e-06 -15.594626 18.35574 6.368036 -1.844034 2.498507 -2.507279 -10.163605 4.678949 4.621111 -20.97604 -2e-06 -1e-06 -21.226303 2.451699 -3.594005 0.0 -5e-06 -0.0 -1.362683 2.240799 -0.746323 -21.334929 0.58491 3.008321 -13.821221 -3e-06 -0.0 -23.887184 -0.24908 -0.839486 -60.135513 2.805289 -1.145443 -0.294025 1.679689 0.833258 -14.218221 0.093216 1.300579 -34.212078 -0.287562 0.967166 -20.033232 0.964536 1.212844 0.0 -0.0 1e-06 -3.440391 0.788234 0.501654 -15.928196 -3.167313 2.999707 -6.33883 -1e-06 0.0 -18.123461 3.648186 -4.905677 -3e-06 2e-06 -1e-06 21.464445 10.146915 18.522003 55.191177 6.858469 15.893645 -0.279135 22.776035 -0.015169 -12.24505 4.588396 -10.910209 2.243542 -5.255038 -3.180158 14.282898 -0.826595 6.952505 -3e-06 -12.690608 -1e-06 16.126133 -17.592793 2.571448 1.665667 -1.955922 -2.878299 4.7278 -4.170588 4.993925 11.020532 3e-06 -1e-06 12.109058 -3.735717 -2.866785 0.0 0.0 0.0 1.291986 -1.92855 -1.498091 14.800134 0.567467 3.865611 14.242579 -1.341736 -6.660661 19.631973 0.143927 -0.648245 49.432125 -0.471802 -6.398114 0.353029 -1.51115 -0.031941 20.222803 3.684312 2.316631 18.787285 4e-06 1e-06 10.751636 -0.479869 1.397907 0.0 0.0 0.0 3.273808 0.305947 -0.58011 21.486824 11.83038 2.266134 8.16293 3e-06 -3e-06 18.399096 -3.798985 -4.940577 2e-06 1e-06 0.0 5.633751 5.51777 -1.287143 0.004005 -0.009404 5.427114 -7.305833 0.023408 -3.406832 1.642454 -2.070704 -0.729253 -0.0 -0.0 2e-06 -4.486955 -11.042355 -4.17468 -0.04016 -0.008182 8.345659 7.920096 0.917382 -4.260967 -1.412828 0.901315 -0.698577 0.0 -0.0 -1e-06 
